# xmcd
#
# Track frame offsets: 
#        150
#        17308
#        33068
#        60242
#        82114
#        97868
#        118716
#        136518
#        160352
#
# Disc length: 2340 seconds
#
# Revision: 0
# Processed by: cddbd v1.5.2PL0 Copyright (c) Steve Scherf et al.
# Submitted via: ExactAudioCopy v1.0b4
#
DISCID=59092209
DTITLE=Glen Delpit and the Subterraneans - Life Is Like Shakespeare
DYEAR=2013
DGENRE=Blues Rock
TTITLE0=Champagne
TTITLE1=Waiting
TTITLE2=Stones Throw From Hell
TTITLE3=Down The Highway
TTITLE4=I'll Come Running
TTITLE5=Life Is Like Shakespeare
TTITLE6=Pay The Piper
TTITLE7=The Cure
TTITLE8=New Sawmill Moan
EXTD=
EXTT0=
EXTT1=
EXTT2=
EXTT3=
EXTT4=
EXTT5=
EXTT6=
EXTT7=
EXTT8=
PLAYORDER=
